<?xml version="1.0" encoding="utf-8"?>
<!-- Generator: Adobe Illustrator 27.5.0, SVG Export Plug-In . SVG Version: 6.00 Build 0)  -->
<svg version="1.1" xmlns="http://www.w3.org/2000/svg" xmlns:xlink="http://www.w3.org/1999/xlink" x="0px" y="0px"
	 viewBox="0 0 500 500" style="enable-background:new 0 0 500 500;" xml:space="preserve">
<g id="Space">
	<path id="Background" style="fill:#263238;" d="M312.04,53.149C169.183,14.08,75.284,37.369,39.882,88.327
		c-28.434,40.928-13.842,76.436,22.717,144.448s4.639,107.409-6.467,165.122c-12.186,63.321,85.303,77.393,174.668,58.631
		c89.365-18.762,254.111-100.752,247.783-241.557C474.521,124.566,389.219,74.256,312.04,53.149z"/>
</g>
<g id="Stars_1_">
	<g id="Stars">
		<g id="XMLID_3330_">
			<path id="XMLID_3373_" style="fill:#F0F0F0;" d="M151.517,73.104c0,0.862-0.699,1.56-1.56,1.56c-0.862,0-1.56-0.698-1.56-1.56
				c0-0.862,0.699-1.56,1.56-1.56C150.818,71.543,151.517,72.242,151.517,73.104z"/>
			<path id="XMLID_3371_" style="fill:#FAFAFA;" d="M157.927,73.883c0,0.503-0.408,0.911-0.911,0.911s-0.911-0.408-0.911-0.911
				c0-0.503,0.408-0.911,0.911-0.911S157.927,73.38,157.927,73.883z"/>
		</g>
		<g id="XMLID_3341_">
			<path id="XMLID_3368_" style="fill:#F0F0F0;" d="M402.605,276.409c0.565-0.651,1.55-0.721,2.201-0.156
				c0.651,0.565,0.721,1.55,0.156,2.201c-0.565,0.651-1.55,0.721-2.201,0.156S402.04,277.06,402.605,276.409z"/>
			<path id="XMLID_3360_" style="fill:#FAFAFA;" d="M398.273,271.62c0.329-0.38,0.905-0.421,1.284-0.091
				c0.38,0.329,0.421,0.904,0.091,1.284c-0.329,0.38-0.905,0.421-1.284,0.091C397.984,272.575,397.944,272,398.273,271.62z"/>
		</g>
		<g id="XMLID_3339_">
			<path id="XMLID_3367_" style="fill:#FAFAFA;" d="M102.914,417.189c0.505,0.487,0.52,1.291,0.033,1.797
				c-0.487,0.505-1.292,0.52-1.797,0.033c-0.505-0.487-0.52-1.292-0.033-1.797C101.605,416.717,102.409,416.702,102.914,417.189z"/>
			<path id="XMLID_3363_" style="fill:#FAFAFA;" d="M114.641,422.739c0.824,0.794,0.848,2.105,0.054,2.929s-2.105,0.848-2.929,0.054
				c-0.824-0.794-0.848-2.105-0.054-2.929C112.506,421.969,113.817,421.945,114.641,422.739z"/>
		</g>
		<g id="XMLID_3332_">
			<path id="XMLID_3365_" style="fill:#FAFAFA;" d="M338.195,365.47c0,1.144-0.927,2.072-2.072,2.072
				c-1.144,0-2.072-0.927-2.072-2.072s0.928-2.072,2.072-2.072C337.268,363.398,338.195,364.326,338.195,365.47z"/>
			<path id="XMLID_3361_" style="fill:#FAFAFA;" d="M332.005,371.13c0,0.683-0.554,1.236-1.236,1.236
				c-0.683,0-1.236-0.553-1.236-1.236c0-0.683,0.554-1.236,1.236-1.236C331.451,369.893,332.005,370.447,332.005,371.13z"/>
			<path id="XMLID_3342_" style="fill:#FAFAFA;" d="M328.499,363.398c0,0.551-0.446,0.997-0.997,0.997
				c-0.55,0-0.997-0.446-0.997-0.997c0-0.551,0.446-0.997,0.997-0.997C328.052,362.401,328.499,362.848,328.499,363.398z"/>
		</g>
		<g id="XMLID_3328_">
			<path id="XMLID_3369_" style="fill:#FAFAFA;" d="M266.396,102.288c0,0.702-0.569,1.271-1.271,1.271
				c-0.702,0-1.271-0.569-1.271-1.271c0-0.702,0.569-1.271,1.271-1.271C265.827,101.017,266.396,101.586,266.396,102.288z"/>
			<g id="XMLID_3279_">
				<path id="XMLID_3312_" style="fill:#FAFAFA;" d="M272.372,85.647l2.864,2.826l3.952-0.758c0.373-0.072,0.667,0.316,0.496,0.656
					l-1.802,3.598l1.942,3.524c0.183,0.333-0.094,0.732-0.47,0.675l-3.978-0.602l-2.752,2.936c-0.26,0.277-0.725,0.136-0.787-0.239
					l-0.657-3.97l-3.642-1.71c-0.344-0.161-0.354-0.647-0.016-0.822l3.573-1.851l0.5-3.993
					C271.642,85.539,272.102,85.38,272.372,85.647z"/>
			</g>
		</g>
		<g id="XMLID_3320_">
			<path id="XMLID_3321_" style="fill:#FAFAFA;" d="M282.147,279.054l0.446,3.081l2.791,1.379c0.264,0.13,0.263,0.506,0,0.636
				l-2.793,1.376l-0.449,3.081c-0.042,0.291-0.4,0.407-0.605,0.196l-2.172-2.231l-3.069,0.525c-0.29,0.05-0.511-0.255-0.374-0.515
				l1.45-2.755l-1.447-2.757c-0.137-0.26,0.085-0.565,0.374-0.515l3.068,0.528l2.174-2.228
				C281.747,278.647,282.105,278.763,282.147,279.054z"/>
		</g>
	</g>
</g>
<g id="Spaceship_1_">
	<g id="Spaceship">
		<g id="Spaceship_2_">
			<g id="XMLID_2418_">
				<polygon id="XMLID_2417_" style="fill:#27DEBF;" points="389.218,177.446 352.659,156.339 381.094,139.923 385.156,142.268 
					381.094,149.304 				"/>
				<polygon id="XMLID_2401_" style="fill:#27DEBF;" points="385.156,142.268 385.156,144.613 381.545,150.867 381.094,149.304 				
					"/>
				<polygon id="XMLID_2628_" style="opacity:0.1;" points="385.156,142.268 385.156,144.613 381.545,150.867 381.094,149.304 				
					"/>
			</g>
			<g id="XMLID_2606_">
				<path id="XMLID_3072_" style="fill:#27DEBF;" d="M335.027,146.115c-1.65-1.19-4.05-1.14-6.71,0.42
					c-4.93,2.9-8.89,9.88-8.84,15.6c0.02,2.6,0.87,4.5,2.25,5.5l-2.21-0.97l0.01-0.01c-1.83-0.88-2.99-2.98-3.01-6.06
					c-0.05-5.87,4.02-13.04,9.08-16.01c2.82-1.65,5.34-1.66,7.04-0.33C332.637,144.255,333.627,145.025,335.027,146.115z"/>
				<path id="XMLID_3074_" style="fill:#455A64;" d="M343.777,152.945l-10.44,19.81l-9.9-4.36l-1.71-0.76c-1.38-1-2.23-2.9-2.25-5.5
					c-0.05-5.72,3.91-12.7,8.84-15.6c2.66-1.56,5.06-1.61,6.71-0.42c0.11,0.09,0.22,0.18,0.34,0.27
					C338.667,148.955,343.767,152.945,343.777,152.945z"/>
				<path id="XMLID_3225_" style="fill:#37474F;" d="M336.146,167.424l-0.75-4.259l-14.477-7.63c-0.927,2.192-1.461,4.482-1.442,6.6
					c0.02,2.6,0.87,4.5,2.25,5.5l1.71,0.76l9.9,4.36L336.146,167.424z"/>
			</g>
			<path id="XMLID_2608_" style="fill:#FAFAFA;" d="M449.692,221.556c-0.285-0.833-3.823-9.214-9.511-17.247
				c-6.459-9.122-14.684-18.254-18.884-21.014c-8.09-5.33-72.96-34.77-72.96-34.77l-0.01,0.01c-2.17-0.98-5.02-0.7-8.15,1.14
				c-6.7,3.93-12.08,13.42-12.02,21.2c0.03,3.55,1.2,6.11,3.09,7.49l-0.01,0.01c0,0,50.22,36.78,67.6,44.97
				c8.07,3.81,19,5.03,28.39,5.24c0.34,0.01,0.68,0.02,1.01,0.02c10.35,0.16,18.58-0.86,18.58-0.86l0.01-0.02
				c1.92-0.23,3.4-1.86,3.39-3.83C450.207,223.195,450.022,222.521,449.692,221.556z"/>
			<path id="XMLID_3189_" style="fill:#F0F0F0;" d="M340.177,149.675c-2.489,1.46-4.795,3.689-6.708,6.311l50.53,19.784l2.314-1.337
				l-44.257-25.678C341.442,149.003,340.817,149.298,340.177,149.675z"/>
			<path id="XMLID_3185_" style="fill:#F0F0F0;" d="M446.827,227.725c1.673-0.201,3.011-1.465,3.32-3.091
				c-4.424,2.393-27.827-2.346-36.557-6.344c-6.883-3.153-44.683-26.773-44.683-26.773l-36.559-23.452l-3.576-2.098
				c-0.405,1.666-0.629,3.322-0.616,4.907c0.03,3.55,1.2,6.11,3.09,7.49l-0.01,0.01c0,0,50.22,36.78,67.6,44.97
				c8.07,3.81,19,5.03,28.39,5.24c0.34,0.01,0.68,0.02,1.01,0.02c10.35,0.16,18.58-0.86,18.58-0.86L446.827,227.725z"/>
			<path id="XMLID_3073_" style="fill:#27DEBF;" d="M352.577,150.455c-2.1-0.52-4.66-0.03-7.42,1.59
				c-7.01,4.12-12.65,14.05-12.59,22.19c0.02,2.71,0.67,4.88,1.8,6.42c-1.99-1.45-3.13-2.28-3.13-2.28l0.01-0.01
				c-1.89-1.38-3.06-3.94-3.09-7.49c-0.06-7.78,5.32-17.27,12.02-21.2c3.13-1.84,5.98-2.12,8.15-1.14l0.01-0.01
				C348.337,148.525,349.897,149.235,352.577,150.455z"/>
			<path id="XMLID_3190_" style="opacity:0.1;" d="M342.056,148.755c-0.614,0.248-1.239,0.543-1.879,0.92
				c-2.489,1.46-4.795,3.689-6.708,6.311l5.164,2.022c1.902-2.461,4.129-4.556,6.524-5.963c0.459-0.269,0.91-0.496,1.357-0.704
				L342.056,148.755z"/>
			<path id="XMLID_3187_" style="opacity:0.1;" d="M333.403,179.952c0.292,0.212,0.616,0.447,0.96,0.696
				c-1.127-1.54-1.776-3.707-1.796-6.414c-0.013-1.789,0.263-3.665,0.754-5.546l-0.972-0.623l-3.576-2.098
				c-0.086,0.354-0.159,0.707-0.229,1.06c-0.022,0.115-0.045,0.231-0.065,0.346c-0.053,0.297-0.1,0.592-0.14,0.887
				c-0.029,0.213-0.051,0.424-0.073,0.635c-0.023,0.218-0.048,0.437-0.063,0.654c-0.03,0.446-0.05,0.889-0.046,1.325
				c0.03,3.55,1.2,6.11,3.09,7.49l-0.01,0.01C331.237,178.375,332.02,178.945,333.403,179.952z"/>
			<polygon id="XMLID_2399_" style="fill:#27DEBF;" points="332.349,168.065 368.908,189.172 320.163,184.482 307.977,186.827 
				303.915,184.482 			"/>
			<polygon id="XMLID_2396_" style="fill:#27DEBF;" points="303.915,184.482 303.915,186.827 307.977,189.172 320.163,186.827 
				368.908,191.517 368.908,189.172 320.163,184.482 307.977,186.827 			"/>
			<g id="XMLID_2605_">
				<polygon id="XMLID_2422_" style="fill:#27DEBF;" points="343.379,152.317 383.999,175.77 351.503,128.865 347.44,117.139 
					343.378,114.794 				"/>
				<polygon id="XMLID_2607_" style="opacity:0.15;" points="343.379,152.317 383.999,175.77 351.503,128.865 347.44,117.139 
					343.378,114.794 				"/>
				<polygon id="XMLID_2423_" style="fill:#27DEBF;" points="345.692,113.456 343.378,114.794 347.44,117.139 351.503,128.865 
					383.999,175.77 386.313,174.433 353.817,127.528 349.754,115.802 				"/>
			</g>
			<path id="XMLID_2611_" style="fill:#27DEBF;" d="M450.217,223.895c-0.01-0.7-0.195-1.374-0.525-2.339
				c-0.202-0.592-2.056-5.003-5.149-10.387c-6.581-2.048-12.982,12.187-9.352,17.377c6.847-0.211,11.626-0.802,11.626-0.802
				l0.01-0.02C448.747,227.495,450.227,225.865,450.217,223.895z"/>
			<polygon id="XMLID_2610_" style="opacity:0.1;" points="349.754,115.802 347.44,117.139 351.503,128.865 353.817,127.528 			"/>
			<polygon id="XMLID_2622_" style="opacity:0.05;" points="353.817,127.528 386.313,174.433 383.999,175.77 351.503,128.865 			"/>
			<polygon id="XMLID_3075_" style="opacity:0.15;" points="303.915,184.482 307.977,186.827 307.977,189.172 303.915,186.827 			
				"/>
			<polygon id="XMLID_3079_" style="opacity:0.05;" points="320.163,186.827 320.163,184.482 368.908,189.172 368.908,191.517 			
				"/>
			<polygon id="XMLID_3088_" style="opacity:0.1;" points="320.163,184.482 307.977,186.827 307.977,189.172 320.163,186.827 			"/>
			<path id="XMLID_3186_" style="opacity:0.1;" d="M447.689,227.506c0.137-0.05,0.274-0.103,0.403-0.168
				c0.077-0.039,0.15-0.084,0.224-0.128c0.112-0.066,0.222-0.135,0.327-0.212c0.074-0.054,0.144-0.112,0.214-0.171
				c0.094-0.08,0.185-0.165,0.271-0.254c0.065-0.067,0.129-0.135,0.189-0.207c0.079-0.094,0.15-0.194,0.219-0.295
				c0.053-0.077,0.108-0.153,0.155-0.234c0.065-0.111,0.118-0.23,0.172-0.348c0.036-0.08,0.079-0.157,0.11-0.24
				c0.073-0.197,0.133-0.401,0.173-0.612c0-0.001,0.001-0.002,0.001-0.003c-2.146,1.161-8.758,0.641-15.993-0.655
				c-0.083,1.786,0.223,3.405,1.036,4.568c0,0,0.001,0,0.001,0c0.36-0.011,0.71-0.024,1.057-0.037
				c0.112-0.004,0.226-0.008,0.337-0.013c0.346-0.014,0.688-0.028,1.021-0.044c0.058-0.003,0.114-0.005,0.171-0.008
				c1.116-0.053,2.156-0.113,3.102-0.176c0.021-0.001,0.043-0.003,0.063-0.004c0.319-0.021,0.628-0.043,0.926-0.065
				c0.009-0.001,0.018-0.001,0.027-0.002c1.207-0.088,2.227-0.178,3.02-0.253c0.026-0.002,0.051-0.005,0.076-0.007
				c0.52-0.05,0.932-0.093,1.235-0.126c0.046-0.005,0.098-0.011,0.139-0.015c0.073-0.008,0.136-0.015,0.192-0.022
				c0.032-0.004,0.066-0.007,0.091-0.01c0.103-0.012,0.167-0.02,0.167-0.02l0.01-0.02c0.226-0.027,0.444-0.077,0.656-0.141
				C447.554,227.562,447.62,227.531,447.689,227.506z"/>
			<path id="XMLID_3226_" style="opacity:0.1;" d="M317.941,153.965c-0.914,2.206-1.443,4.503-1.425,6.629
				c0.02,3.08,1.18,5.18,3.01,6.06l-0.01,0.01l2.21,0.97c-1.38-1-2.23-2.9-2.25-5.5c-0.019-2.118,0.515-4.408,1.442-6.6
				L317.941,153.965z"/>
			<path id="XMLID_2400_" style="fill:#455A64;" d="M428.881,191.518c0,0-4.337-1.414-11.228,2.062
				c-7.415,3.74-10.668,9.947-10.668,9.947l10.177,4.69c0,0,7.637-7.663,17.228-9.947
				C433.195,196.516,430.578,192.938,428.881,191.518z"/>
			<path id="XMLID_3091_" style="fill:#E0E0E0;" d="M386.313,203.957c-0.01-1.504,0.117-2.964,0.377-4.312
				c0.454-2.351,0.095-4.842-1.534-5.783c-1.629-0.941-3.776,0.057-4.271,2.377c-0.288,1.346-0.437,2.733-0.47,4.263
				L386.313,203.957z"/>
		</g>
		<path id="Cable" style="fill:#E0E0E0;" d="M380.917,200.141c0,0-0.181-0.075-0.533-0.22c-0.363-0.146-0.839-0.325-1.539-0.512
			c-1.366-0.377-3.481-0.79-6.112-0.454c-2.607,0.308-5.718,1.693-7.948,4.632l-0.418,0.551l-0.105,0.139l-0.027,0.035
			c-0.016,0.022,0.042-0.071,0.007-0.012l-0.044,0.081l-0.175,0.324c-0.221,0.434-0.503,0.874-0.685,1.322
			c-0.315,0.893-0.669,1.788-0.891,2.835c-0.531,2.024-0.83,4.246-1.118,6.559c-0.524,4.647-0.797,9.736-1.24,15.132
			c-0.248,2.699-0.484,5.478-0.943,8.317c-0.472,2.832-0.982,5.753-2.172,8.633c-1.145,2.777-3.096,5.535-5.429,7.652
			c-2.341,2.164-5.135,3.88-8.143,5.031c-2.993,1.185-6.168,1.977-9.386,2.276c-3.217,0.412-6.461,0.283-9.68,0.061
			c-6.422-0.631-12.681-2.376-18.537-4.595c-5.789-2.211-11.447-4.266-17.017-6.026c-5.559-1.743-10.984-3.234-16.193-4.122
			c-1.295-0.284-2.588-0.408-3.853-0.595c-1.267-0.183-2.514-0.357-3.746-0.416c-1.23-0.078-2.439-0.207-3.625-0.242
			c-1.184-0.003-2.346-0.005-3.485-0.008c-4.536,0.152-8.672,0.661-12.193,1.648c-0.883,0.232-1.738,0.457-2.564,0.674
			c-0.8,0.296-1.571,0.581-2.312,0.855c-0.74,0.274-1.45,0.537-2.128,0.788c-0.661,0.292-1.273,0.617-1.864,0.899
			c-1.168,0.595-2.249,1.047-3.121,1.575c-0.867,0.537-1.605,0.994-2.203,1.364c-1.197,0.738-1.835,1.131-1.835,1.131l-2.787-4.151
			c0,0,0.706-0.418,2.029-1.201c0.662-0.39,1.478-0.871,2.438-1.437c0.966-0.554,2.163-1.038,3.456-1.66
			c0.654-0.296,1.332-0.633,2.064-0.938c0.75-0.262,1.534-0.536,2.353-0.822c0.818-0.282,1.67-0.576,2.554-0.88
			c0.908-0.221,1.848-0.449,2.82-0.685c3.874-0.994,8.379-1.46,13.245-1.519c1.216,0.028,2.458,0.056,3.723,0.085
			c1.261,0.064,2.535,0.222,3.836,0.333c1.305,0.092,2.611,0.3,3.935,0.518c1.323,0.222,2.68,0.385,4.018,0.705
			c5.415,1.039,10.96,2.688,16.591,4.58c5.619,1.902,11.358,4.122,17.07,6.438c5.65,2.273,11.558,4.04,17.638,4.768
			c3.033,0.267,6.092,0.456,9.096,0.128c3.015-0.215,5.962-0.895,8.728-1.924c2.785-0.997,5.342-2.507,7.484-4.407
			c2.167-1.926,3.819-4.102,4.998-6.74c1.125-2.553,1.693-5.374,2.202-8.106c0.502-2.746,0.793-5.492,1.093-8.159
			c0.549-5.349,0.927-10.448,1.554-15.152c0.342-2.35,0.69-4.608,1.291-6.727c0.245-1.054,0.666-2.105,1.07-3.113
			c0.215-0.485,0.488-0.89,0.723-1.328l0.182-0.321l0.045-0.08c-0.021,0.031,0.057-0.089,0.057-0.089l0.03-0.038l0.118-0.15
			l0.467-0.592c1.25-1.555,2.747-2.758,4.292-3.548c1.545-0.792,3.108-1.213,4.525-1.358c2.849-0.303,5.067,0.186,6.509,0.613
			c0.718,0.206,1.297,0.438,1.635,0.583c0.348,0.152,0.528,0.231,0.528,0.231L380.917,200.141z"/>
	</g>
</g>
<g id="Character">
	<g id="Character_1_">
		<g id="XMLID_1040_">
			<path id="XMLID_1034_" style="fill:#263238;" d="M156.963,331.559c-6.657,1.388-13.445,2.593-14.133,6.529
				c-0.688,3.936,5.122,11.379,18.345,8.229c13.223-3.151,14.245-8.063,13.371-11.726
				C173.671,330.927,162.251,330.456,156.963,331.559z"/>
			<path id="XMLID_1041_" style="fill:#263238;" d="M251.064,319.644c-3.633-0.263-9.418,6.29-13.598,11.391
				c-4.179,5.102-7.735,10.237-6.55,12.311c1.185,2.074,5.554,6.731,14.289,0.625c8.735-6.106,11.238-14.215,11.066-17.839
				C256.1,322.508,254.174,319.869,251.064,319.644z"/>
			<path id="XMLID_3188_" style="fill:#F0F0F0;" d="M169.495,312.729c-1.36,3.069-1.365,6.539-0.091,9.645
				c5.379,13.119,3.163,34.849,3.04,46.701c-10.864,8.371-19.498,1.423-19.498,1.423s-12.46-50.8-12.852-57.015
				c-0.592-9.381,2.548-21.981,8.395-34.738c5.846-12.756,11.759-24.073,14.931-29.233l61.467,3.961c0,0,3.896,9.285,5.126,20.425
				c1.231,11.14,2.016,25.232,5.033,34.333c1.056,3.186,3.386,5.758,6.417,7.201c12.802,6.095,25.771,23.672,33.648,32.527
				c-2.414,13.501-13.477,14.163-13.477,14.163s-43.377-29.229-47.846-33.566c-6.745-6.546-13.182-15.771-17.43-29.144
				c-4.248-13.373-6.813-19.935-6.813-19.935S173.38,303.964,169.495,312.729z"/>
			<g id="XMLID_1014_">
				<path id="XMLID_1004_" style="fill:#455A64;" d="M145.354,343.972c0,0,3.623,13.961,3.793,17.935
					c0.141,3.306-0.851,5.904-5.089,8.633c-6.089,3.92-15.475,8.094-21.538,12.722c-3.871,2.955-3.307,7.362,2.909,9.959
					c3.825,1.598,11.697,3.412,21.372,0.015c5.27-1.851,11.726-7.684,16.219-7.941c4.492-0.257,12.307-0.565,14.917-4.638
					c0.878-6.359-1.925-11.336-2.61-15.578c-1.136-7.036-0.88-21.069-0.94-25.348c0,0-3.745,5.637-13.999,6.97
					C150.132,348.034,145.354,343.972,145.354,343.972z"/>
				<path id="XMLID_2_" style="fill:#27DEBF;" d="M173.327,334.98c0.249,2.156-0.776,4.331-3.436,6.305
					c-5.32,3.948-14.561,5.013-20.639,2.379c-2.814-1.219-4.457-3.017-4.882-4.988c0,0-0.32-1.607,0.452-2.287l-0.637-2.783
					c0,0-2.889,1.116-3.028,4.296c-0.092,2.104,0.997,7.171,7.604,9.681c6.607,2.51,17.567,1.232,22.987-2.911
					c4.936-3.772,5.1-9.214,4.128-11.415c-0.869-1.969-2.513-2.751-4.19-2.75l0.425,2.637
					C172.11,333.144,173.094,333.592,173.327,334.98z"/>
			</g>
			<g id="XMLID_1013_">
				<path id="XMLID_1007_" style="fill:#455A64;" d="M237.528,347.129c0,0,10.892,7.86,13.68,10.696
					c2.32,2.36,3.325,4.953,2.008,9.818c-1.893,6.99-5.325,13.39-6.724,20.888c-0.893,4.787,2.478,7.68,8.833,5.443
					c3.91-1.376,9.662-4.31,15.86-12.479c3.924-5.171,3.983-12.33,7.146-15.531c3.162-3.201,7.463-9.475,6.671-14.247
					c-3.609-5.309-7.732-6.316-11.083-9.006c-5.558-4.461-14.771-15.049-17.683-18.185c0,0,0.997,6.693-5.721,14.554
					C243.797,346.942,237.528,347.129,237.528,347.129z"/>
				<path id="XMLID_1006_" style="fill:#27DEBF;" d="M252.266,321.71c1.63,1.434,2.327,3.735,1.675,6.982
					c-1.304,6.495-7.449,13.478-13.726,15.596c-2.906,0.981-5.33,0.747-6.967-0.431c0,0-1.326-0.95-1.208-1.972l-2.376-1.657
					c0,0-1.347,2.755,0.681,5.208c1.342,1.623,5.546,4.654,12.132,2.09c6.586-2.564,13.865-10.857,15.112-17.564
					c1.136-6.107-2.389-10.257-4.585-11.24c-1.965-0.879-3.806-0.429-5.05,0.696l2.263,1.763
					C250.216,321.182,251.163,320.836,252.266,321.71z"/>
			</g>
			<path id="XMLID_2391_" style="fill:#E0E0E0;" d="M174.354,268.19c0,0,3.557,8.111,7.594,11.594c0,0-7.171,16.837-10.685,25.022
				c-3.514,8.185-2.78,13.368-2.78,13.368l0.004-0.008c-0.081-1.849,0.24-3.706,1.007-5.437
				c3.885-8.765,20.048-33.251,20.048-33.251S182.395,276.662,174.354,268.19z"/>
		</g>
		<g id="XMLID_1035_">
			<path id="XMLID_1039_" style="fill:#455A64;" d="M113.685,190.56c-0.668-1.296-1.496-7.834-1.233-11.44
				c0.224-3.079-2.572-4.394-4.392-1.894s-1.395,4.62-2.343,4.14c-0.949-0.48-2.642-5.076-3.777-9.286
				c-1.023-3.795-4.748-10.074-11.164-3.574c-6.286,6.369-2.977,16.298-0.814,21.406s8.644,11.656,12.708,13.49L113.685,190.56z"/>
			<path id="XMLID_1037_" style="fill:#27DEBF;" d="M115.92,194.34c1.103-1.925-1.361-4.003-3.995-4.193
				c-2.487-0.179-5.741,0.896-8.301,3.41c-2.967,2.914-4.153,7.328-3.025,10.651c1.285,3.787,4.325,3.176,4.325,3.176L115.92,194.34
				z"/>
			<path id="XMLID_1036_" style="fill:#F0F0F0;" d="M174.011,203.367c-3.38,5.207-17.121,17.317-22.697,21.435
				c-5.467,4.038-12.204,7.204-16.128,7.096c-3.28-0.09-15.992-6.374-30.262-24.514c-1.213-1.542-2.304-4.222-1.963-6.091
				c0.864-4.742,3.771-7.357,7.627-8.182c1.58-0.338,4.12,0.16,5.332,1.228c4.33,3.817,14.728,13.655,18.919,14.722
				c5.053-1.251,10.378-8.186,15.124-13.873c4.746-5.687,11.476-16.351,17.49-14.878
				C180.105,183.412,177.547,200.789,174.011,203.367z"/>
		</g>
		<path id="XMLID_3081_" style="fill:#27DEBF;" d="M163.759,242.376c-1.956,1.506-1.98,5.747,0.849,8.752
			c2.829,3.005,11.212,9.148,24.778,10.988c15.231,2.065,27.256-2.367,32.987-6.297c5.942-4.074,2.679-8.127,2.679-8.127
			L163.759,242.376z"/>
		<g id="XMLID_2390_">
			
				<ellipse id="XMLID_3275_" transform="matrix(0.9239 -0.3827 0.3827 0.9239 -43.1142 84.5842)" style="fill:#455A64;" cx="191.06" cy="150.667" rx="35.52" ry="35.52"/>
			<path id="XMLID_1038_" style="fill:#27DEBF;" d="M183.805,192.36c0.701,9.45-5.211,17.592-13.205,18.185
				c-7.994,0.593-12.861-7.006-13.562-16.456c-0.701-9.45,4.529-18.788,11.209-16.584
				C176.261,177.321,183.105,182.909,183.805,192.36z"/>
			<g id="XMLID_1032_">
				<path id="XMLID_1015_" style="opacity:0.1;" d="M183.805,192.36c0.701,9.45-5.211,17.592-13.205,18.185
					c-7.994,0.593-12.861-7.006-13.562-16.456c-0.701-9.45,4.529-18.788,11.209-16.584
					C176.261,177.321,183.105,182.909,183.805,192.36z"/>
			</g>
			<path id="XMLID_3082_" style="fill:#FAFAFA;" d="M167.201,177.461c-2.479,2.529-5.724,9.381-4.825,19.702
				c0.636,7.307,3.268,14.03,2.59,22.512c-0.47,5.88-3.901,15.038-1.207,22.702c1.425,4.053,10.934,12.091,25.375,14.903
				c14.441,2.812,33.298-3.806,36.691-10.841c3.514-7.286,4.556-26.182,3.839-35.263c-0.717-9.081-3.067-27.565-10.716-35.448
				C197.876,163.39,181.464,166.616,167.201,177.461z"/>
		</g>
		<g id="XMLID_3077_">
			<circle id="XMLID_3274_" style="fill:#263238;" cx="183.189" cy="145.021" r="14.697"/>
			<g id="XMLID_3191_">
				<g id="XMLID_3217_">
					<path id="XMLID_3224_" style="fill:#263238;" d="M208.595,155.471c0,0-2.382,11.189-3.337,13.028
						c-0.955,1.839-2.929,2.361-2.929,2.361l0.167-7.871L208.595,155.471z"/>
					<path id="XMLID_3223_" style="fill:#263238;" d="M205.606,139.441c0,0,2.565-0.44,4.565,1.605
						c1.96,2.005,0.866,8.279-1.576,14.424l-4.486,0.515L205.606,139.441z"/>
					<path id="XMLID_3222_" style="fill:#FFA8A7;" d="M202.763,155.989c0.899,0.537,2.183-1.191,3.292-2.352
						c1.109-1.16,4.731-2.747,6.537,1.06c1.841,3.879-1.595,9.005-4.446,9.9c-4.913,1.542-5.651-1.609-5.651-1.609l-0.426,14.475
						c0,0,1.128,3.449-7.583,4.63c-8.712,1.181-11.264-1.578-8.402-5.098l0.064-2.146c0,0-4.452,0.676-6.624,0.34
						c-3.613-0.559-5.887-3.41-6.983-7.321c-1.761-6.282-2.429-11.355-0.935-23.71c1.637-13.542,17.388-13.683,25.894-8.329
						C206.007,141.182,202.763,155.989,202.763,155.989z"/>
					<path id="XMLID_3220_" style="fill:#263238;" d="M202.763,157.503c0.453,0.009,2.173-2.846,3.292-3.865
						c1.54-1.401-0.42-14.005-0.449-14.194c-0.103-0.66,0.149-1.371-0.022-2.12c-0.213-0.933-0.586-1.825-1.072-2.649
						c-0.95-1.613-2.6-2.442-4.203-3.402c-2.889-1.73-5.807-2.425-9.174-2.407c-3.235,0.018-5.611,0.611-9.709,1.457
						c-3.41,0.704-7.695,1.292-11.007,0.218c-2.211-0.717-2.007,2.439-1.204,5.074c0.653,2.14,1.9,3.645,3.084,4.819
						c2.019,2.002,5.69,3.101,8.372,3.238c7.11,0.363,14.874-1.202,16.1-1.37c1.669-0.228,2.127,0.297,3.027,4.716
						C200.587,150.898,201.243,157.473,202.763,157.503z"/>
					<path id="XMLID_3219_" style="fill:#263238;" d="M205.597,140.435l5.439-2.92c-0.772-1.558-2.615-2.168-4.117-1.362
						C205.417,136.96,204.825,138.877,205.597,140.435z"/>
					<path id="XMLID_3218_" style="fill:#F28F8F;" d="M186.149,174.849c0,0,8.066-1.625,10.886-3.124
						c1.887-1.003,3.442-2.742,3.898-3.857c0,0-0.528,2.393-2.215,4.549c-2.062,2.636-12.634,4.578-12.634,4.578L186.149,174.849z"
						/>
				</g>
				<g id="XMLID_3192_">
					<path id="XMLID_3216_" style="fill:#263238;" d="M187.576,155.455c0,0.928,0.724,1.678,1.617,1.675
						c0.893-0.002,1.616-0.756,1.616-1.684c0-0.928-0.724-1.677-1.616-1.675C188.3,153.774,187.576,154.528,187.576,155.455z"/>
					<path id="XMLID_3215_" style="fill:#263238;" d="M189.29,149.352l3.458,1.908c0.51-0.993,0.149-2.226-0.806-2.753
						C190.988,147.981,189.8,148.359,189.29,149.352z"/>
					<path id="XMLID_3196_" style="fill:#F28F8F;" d="M186.879,165.139l-3.69,1.385c0.365,1.058,1.487,1.605,2.507,1.223
						C186.715,167.364,187.245,166.196,186.879,165.139z"/>
					<path id="XMLID_3195_" style="fill:#263238;" d="M173.162,150.698l3.153-2.429c-0.643-0.903-1.87-1.091-2.741-0.42
						C172.703,148.52,172.519,149.795,173.162,150.698z"/>
					<path id="XMLID_3194_" style="fill:#263238;" d="M174.133,154.995c0,0.927,0.724,1.677,1.617,1.675
						c0.892-0.003,1.616-0.756,1.616-1.684c0-0.928-0.724-1.677-1.616-1.675C174.856,153.313,174.133,154.067,174.133,154.995z"/>
					<polygon id="XMLID_3193_" style="fill:#F28F8F;" points="182.879,151.98 182.348,161.7 177.273,159.97 					"/>
				</g>
			</g>
		</g>
		<g id="XMLID_3078_">
			<path id="XMLID_3579_" style="fill:#27DEBF;" d="M191.06,186.723c-19.881,0-36.056-16.174-36.056-36.056
				c0-19.881,16.175-36.056,36.056-36.056c19.881,0,36.056,16.174,36.056,36.056C227.115,170.548,210.941,186.723,191.06,186.723z
				 M191.06,115.682c-19.291,0-34.985,15.694-34.985,34.985s15.694,34.985,34.985,34.985s34.985-15.694,34.985-34.985
				S210.351,115.682,191.06,115.682z"/>
		</g>
		<path id="XMLID_3281_" style="fill:#27DEBF;" d="M210.796,186.509c-10.9,6.3-28.57,6.3-39.48,0
			c-6.91-3.99-9.772-8.415-7.913-13.555c5.98,8.68,16.323,13.235,27.653,13.235c11.34,0,21.576-4.426,27.556-13.106
			C220.472,178.223,217.706,182.519,210.796,186.509z"/>
		<g id="XMLID_2388_">
			<g id="XMLID_1009_">
				<path id="XMLID_1033_" style="fill:#E0E0E0;" d="M174.546,218.249l-0.38,3.98c-5.39-0.51-13.17,3.06-15.68,9.01
					c-2.18,5.15-2.027,18.366,2.773,22.366c-0.54,1.11-1.12,2.36-1.74,3.71c-7.09-5.1-7.582-20.846-4.722-27.626
					C158.036,222.029,167.606,217.589,174.546,218.249z"/>
			</g>
			<path id="XMLID_1011_" style="fill:#27DEBF;" d="M175.405,217.286l-1.313-0.132c-0.576-0.058-1.103,0.332-1.202,0.902
				c-0.169,0.977-0.324,2.586-0.013,4.449c0.084,0.504,0.489,0.895,0.997,0.943l2.137,0.198L175.405,217.286z"/>
			<path id="XMLID_1005_" style="fill:#37474F;" d="M180.179,206.805l18.727,4.634c2.681,0.663,4.854,3.439,4.854,6.201l0,11.107
				c0,2.762-2.173,4.462-4.854,3.799l-18.727-4.634c-2.68-0.663-4.854-3.439-4.854-6.201l0-11.107
				C175.325,207.842,177.499,206.141,180.179,206.805z"/>
			<path id="XMLID_1008_" style="fill:#27DEBF;" d="M181.371,211.673c1.605,0.397,2.906,2.06,2.906,3.714
				c0,1.654-1.301,2.674-2.906,2.277c-1.605-0.397-2.906-2.06-2.906-3.714C178.466,212.295,179.766,211.276,181.371,211.673z"/>
			<path id="XMLID_1010_" style="fill:#27DEBF;" d="M181.371,219.761c1.605,0.397,2.906,2.06,2.906,3.714
				c0,1.654-1.301,2.674-2.906,2.277s-2.906-2.06-2.906-3.714C178.466,220.383,179.766,219.363,181.371,219.761z"/>
		</g>
		<g id="XMLID_1012_">
			<path id="XMLID_1030_" style="fill:#455A64;" d="M223.191,248.325c-1.275,0.809-7.944,2.271-11.689,2.334
				c-3.198,0.054-4.295,3.061-1.546,4.707c2.749,1.646,4.896,1.01,4.49,2.034c-0.407,1.023-4.993,3.197-9.231,4.759
				c-3.82,1.408-9.953,5.834-2.651,11.85c7.154,5.895,17.093,1.559,22.163-1.147c5.07-2.706,11.225-10.001,12.739-14.364
				L223.191,248.325z"/>
			<path id="XMLID_1029_" style="fill:#27DEBF;" d="M226.884,245.669c-2.089-0.959-4.004,1.776-3.955,4.511
				c0.046,2.583,1.457,5.841,4.288,8.248c3.281,2.791,7.946,3.605,11.27,2.133c3.788-1.677,2.876-4.757,2.876-4.757L226.884,245.669
				z"/>
			<path id="XMLID_1024_" style="fill:#F0F0F0;" d="M230.806,184.892c5.686,3.004,19.457,16.058,24.223,21.429
				c4.674,5.266,8.566,11.923,8.819,15.982c0.211,3.392-5.092,17.092-22.485,33.5c-1.479,1.395-4.143,2.769-6.102,2.591
				c-4.973-0.452-7.941-3.208-9.15-7.11c-0.495-1.599-0.218-4.266,0.772-5.616c3.537-4.822,12.722-16.464,13.434-20.887
				c-1.76-5.097-10.426-9.936-15.169-12.764c0,0-12.051-3.368-10.978-16.82C215.242,181.745,227.818,181.483,230.806,184.892z"/>
			<path id="XMLID_1031_" style="fill:#27DEBF;" d="M230.806,184.892c-1.235-1.247-3.309-1.864-4.99-1.495
				c-6.285,1.381-10.183,8.166-8.653,17.516c1,6.12,3.386,8.814,7.986,11.104c-6.182,0.861-12.413-3.639-13.743-11.779
				c-1.54-9.35,3.735-19.143,11.646-20.433C225.781,179.357,229.778,181.258,230.806,184.892z"/>
		</g>
	</g>
	<g id="Star">
		<g id="XMLID_15862_">
			<path id="XMLID_3273_" style="fill:#FAFAFA;" d="M99.089,129.089l4.823,4.758l6.654-1.276c0.628-0.121,1.122,0.532,0.836,1.104
				l-3.035,6.058l3.27,5.934c0.309,0.561-0.159,1.232-0.792,1.136l-6.699-1.014l-4.633,4.943c-0.438,0.467-1.221,0.229-1.325-0.402
				l-1.105-6.685l-6.133-2.879c-0.579-0.272-0.595-1.09-0.027-1.385l6.016-3.117l0.843-6.723
				C97.86,128.908,98.633,128.64,99.089,129.089z"/>
		</g>
		<circle id="XMLID_3183_" style="fill:#FAFAFA;" cx="117.061" cy="139.193" r="1.679"/>
	</g>
</g>
</svg>
